<svg width="154" height="30" viewBox="0 0 154 30" fill="none" xmlns="http://www.w3.org/2000/svg">
<path d="M40.1864 24.4377C38.6994 24.4793 37.234 24.0752 35.9797 23.2775C34.8282 22.5241 33.9669 21.4036 33.5364 20.099L35.0555 19.1825C35.3405 20.2276 35.9784 21.1426 36.8614 21.773C37.8519 22.4289 39.0251 22.7553 40.2129 22.7054C41.3195 22.7726 42.4159 22.4604 43.3201 21.8207C43.6789 21.5489 43.9673 21.1956 44.1613 20.7902C44.3553 20.3847 44.4493 19.9388 44.4355 19.4898C44.4604 19.0786 44.3793 18.668 44.1998 18.297C44.0203 17.9261 43.7486 17.6072 43.4104 17.3707C42.3578 16.7256 41.2211 16.2283 40.0323 15.8927C38.7601 15.5206 37.5273 15.0256 36.3515 14.4147C35.7151 14.0694 35.187 13.5549 34.8261 12.9283C34.4651 12.3017 34.2853 11.5877 34.3066 10.8653C34.2774 10.1863 34.406 9.50972 34.6824 8.88848C34.9588 8.26724 35.3756 7.71818 35.9 7.28421C37.0038 6.39068 38.3937 5.92421 39.8146 5.97042C41.1072 5.93355 42.3785 6.30431 43.4476 7.02993C44.4461 7.72905 45.2341 8.68712 45.7262 9.80054L44.2124 10.6429C43.9012 9.73993 43.3037 8.9626 42.5102 8.42834C41.7168 7.89408 40.7706 7.63194 39.8146 7.68152C38.8617 7.64129 37.9239 7.92936 37.1588 8.49735C36.8144 8.76906 36.5401 9.11908 36.359 9.51815C36.1779 9.91721 36.0952 10.3537 36.1178 10.7912C36.0925 11.1725 36.1633 11.5541 36.3238 11.9011C36.4843 12.2481 36.7294 12.5495 37.0367 12.7778C37.981 13.3726 39.0059 13.8293 40.0801 14.1339L41.477 14.6054C41.7586 14.6955 42.1675 14.8491 42.704 15.061C43.1148 15.2166 43.5126 15.4044 43.8938 15.6225C44.1487 15.7868 44.4621 16.0093 44.8233 16.2847C45.1415 16.5108 45.4122 16.797 45.62 17.127C45.7995 17.4523 45.9454 17.7948 46.0555 18.1495C46.1733 18.568 46.2253 19.0023 46.2095 19.4368C46.2351 20.1298 46.0982 20.8192 45.8095 21.4501C45.5209 22.081 45.0886 22.636 44.5471 23.0709C43.3007 24.0253 41.7561 24.5094 40.1864 24.4377Z" fill="#0C1F44"/>
<path d="M55.2018 11.0721C56.0682 11.0426 56.9301 11.2072 57.7243 11.5537C58.5184 11.9003 59.2246 12.4199 59.7909 13.0745C60.9475 14.3775 61.5729 16.0653 61.5437 17.8052C61.5397 18.0691 61.5219 18.3326 61.4906 18.5946H50.2675C50.3865 19.7959 50.9787 20.901 51.914 21.6672C52.8898 22.4414 54.1095 22.8451 55.3559 22.8061C56.2401 22.832 57.1157 22.6256 57.8947 22.2075C58.5662 21.8391 59.1188 21.2879 59.4882 20.6182L60.97 21.487C60.4012 22.3808 59.6085 23.1112 58.6702 23.6061C57.6457 24.1429 56.5024 24.4143 55.3452 24.3954C54.4408 24.4305 53.5387 24.2814 52.6939 23.9571C51.8492 23.6328 51.0796 23.1403 50.4321 22.5095C49.8064 21.8797 49.316 21.1292 48.9908 20.304C48.6657 19.4788 48.5128 18.5961 48.5413 17.7099C48.5165 16.8307 48.6692 15.9556 48.9904 15.1365C49.3116 14.3174 49.7947 13.5712 50.4109 12.9421C51.0365 12.317 51.7852 11.8281 52.6099 11.5063C53.4345 11.1844 54.317 11.0366 55.2018 11.0721ZM55.2018 12.7037C53.9946 12.6575 52.8147 13.0689 51.8993 13.8552C50.9838 14.6414 50.4008 15.7442 50.2675 16.9417H59.8281C59.7252 15.7367 59.167 14.6156 58.2665 13.8056C57.416 13.0754 56.3237 12.6865 55.2018 12.7143V12.7037Z" fill="#0C1F44"/>
<path d="M64.2313 24.1304V5.50952H65.9204V24.1304H64.2313Z" fill="#0C1F44"/>
<path d="M69.5002 24.1304V5.50952H71.1733V24.1304H69.5002Z" fill="#0C1F44"/>
<path d="M80.6755 11.0719C81.5419 11.0425 82.4038 11.2071 83.198 11.5536C83.9921 11.9001 84.6983 12.4198 85.2646 13.0744C86.4212 14.3773 87.0466 16.0651 87.0174 17.8051C87.0174 17.9905 87.0174 18.2554 86.9696 18.5944H75.7412C75.8602 19.7958 76.4524 20.9009 77.3877 21.667C78.3635 22.4413 79.5832 22.8449 80.8295 22.806C81.7067 22.8282 82.5744 22.6218 83.3472 22.2074C84.0186 21.839 84.5713 21.2878 84.9406 20.6181L86.4225 21.4869C85.8537 22.3807 85.061 23.1111 84.1227 23.6059C83.0982 24.1428 81.9548 24.4142 80.7977 24.3953C79.8932 24.4304 78.9911 24.2812 78.1464 23.957C77.3017 23.6327 76.5321 23.1401 75.8846 22.5093C75.2588 21.8796 74.7684 21.1291 74.4433 20.3039C74.1182 19.4786 73.9652 18.596 73.9937 17.7098C73.9689 16.8306 74.1216 15.9555 74.4428 15.1364C74.764 14.3173 75.2471 13.571 75.8634 12.942C76.4914 12.3142 77.2436 11.8238 78.0721 11.5018C78.9006 11.1799 79.7872 11.0335 80.6755 11.0719ZM80.6755 12.7036C79.4683 12.6574 78.2884 13.0688 77.373 13.855C76.4575 14.6413 75.8745 15.7441 75.7412 16.9416H85.3018C85.1989 15.7365 84.6407 14.6155 83.7402 13.8055C82.8897 13.0753 81.7974 12.6863 80.6755 12.7142V12.7036Z" fill="#0C1F44"/>
<path d="M91.394 13.4929C92.1748 11.946 93.5186 11.1726 95.4307 11.1726V12.8043C94.3725 12.7678 93.3398 13.1332 92.5413 13.8267C91.7764 14.5048 91.394 15.5802 91.394 17.037V24.1304H89.705V11.3792H91.394V13.4929Z" fill="#0C1F44"/>
<path d="M98.5538 14.6848C98.5509 14.9585 98.6206 15.2281 98.7559 15.4663C98.8911 15.7045 99.0871 15.9027 99.324 16.041C99.9081 16.4017 100.541 16.6765 101.204 16.8568L103.408 17.4819C104.121 17.6784 104.763 18.0713 105.262 18.6156C105.787 19.2059 106.06 19.978 106.022 20.7664C106.033 21.2784 105.922 21.7858 105.698 22.2465C105.473 22.7072 105.142 23.1078 104.731 23.4152C103.771 24.1294 102.592 24.4906 101.395 24.4376C100.294 24.4727 99.2056 24.1894 98.2617 23.6218C97.4432 23.1319 96.8087 22.3874 96.4558 21.5027L97.8899 20.6604C98.1193 21.3251 98.5763 21.8879 99.1806 22.2497C99.8488 22.6483 100.617 22.8486 101.395 22.8271C102.125 22.8533 102.849 22.6812 103.488 22.3292C103.759 22.1759 103.981 21.9505 104.13 21.6782C104.279 21.4058 104.35 21.0974 104.333 20.7876C104.34 20.5085 104.274 20.2322 104.141 19.9867C104.008 19.7412 103.812 19.535 103.573 19.389C102.996 19.0211 102.365 18.7442 101.704 18.5679L99.5046 17.9375C98.7929 17.7436 98.1481 17.3588 97.6403 16.825C97.3777 16.5402 97.1745 16.2062 97.0423 15.8425C96.9101 15.4787 96.8515 15.0924 96.8701 14.706C96.865 14.2067 96.9744 13.7128 97.1897 13.262C97.4051 12.8112 97.7209 12.4154 98.113 12.1049C98.9938 11.3837 100.108 11.0071 101.247 11.0454C102.205 11.0251 103.151 11.2669 103.982 11.7447C104.739 12.1968 105.338 12.87 105.698 13.673L104.29 14.4888C103.812 13.3057 102.796 12.7141 101.241 12.7141C100.564 12.6954 99.8956 12.8799 99.324 13.2439C99.0815 13.397 98.883 13.6103 98.748 13.8628C98.613 14.1154 98.5461 14.3987 98.5538 14.6848Z" fill="#0C1F44"/>
<path d="M118.886 6.27246H122.392V24.1305H118.886V16.7139H112.236V24.1305H108.709V6.27246H112.236V13.3659H118.886V6.27246Z" fill="#0C1F44"/>
<path d="M134.002 11.3792H137.301V24.1303H134.002V22.7053C133.2 23.892 131.931 24.4906 130.194 24.4906C129.55 24.5095 128.909 24.3945 128.312 24.1528C127.715 23.9111 127.175 23.548 126.726 23.0867C126.25 22.5635 125.884 21.9512 125.648 21.2855C125.412 20.6198 125.31 19.914 125.35 19.2089V11.3792H128.648V18.7957C128.625 19.1508 128.674 19.507 128.794 19.8423C128.914 20.1776 129.101 20.4849 129.344 20.7452C129.59 20.9778 129.881 21.1582 130.198 21.2757C130.516 21.3932 130.854 21.4452 131.193 21.4286C131.57 21.4464 131.948 21.3849 132.3 21.248C132.652 21.1111 132.972 20.9019 133.238 20.634C133.798 19.9774 134.075 19.1259 134.008 18.266L134.002 11.3792Z" fill="#0C1F44"/>
<path d="M147.759 11.0191C148.592 11.0116 149.416 11.1817 150.177 11.5179C150.938 11.8541 151.619 12.3487 152.173 12.9686C153.383 14.2589 154.038 15.9701 154 17.7363C154.041 19.503 153.385 21.215 152.173 22.5041C151.619 23.1249 150.939 23.6205 150.178 23.9577C149.417 24.2948 148.592 24.4657 147.759 24.4589C146.969 24.5003 146.181 24.3526 145.461 24.0282C144.74 23.7038 144.107 23.2121 143.616 22.5942V24.0987H140.318V6.27246H143.616V12.8838C144.107 12.2649 144.739 11.7724 145.46 11.4479C146.181 11.1234 146.969 10.9764 147.759 11.0191ZM144.615 20.3427C144.942 20.6732 145.334 20.9331 145.766 21.1062C146.198 21.2794 146.661 21.3621 147.127 21.3493C147.597 21.3633 148.066 21.2813 148.503 21.1082C148.941 20.9351 149.338 20.6746 149.671 20.3427C150.007 20.0023 150.27 19.5969 150.444 19.1515C150.618 18.706 150.698 18.2298 150.68 17.7522C150.698 17.2754 150.618 16.7999 150.445 16.3552C150.271 15.9105 150.008 15.5061 149.671 15.167C149.339 14.8342 148.941 14.5727 148.504 14.3987C148.066 14.2247 147.598 14.1418 147.127 14.1552C146.658 14.1404 146.19 14.2227 145.754 14.3969C145.318 14.571 144.923 14.8332 144.593 15.167C144.26 15.5081 144 15.9131 143.828 16.3575C143.657 16.8018 143.577 17.2764 143.595 17.7522C143.58 18.2304 143.663 18.7064 143.839 19.1517C144.014 19.5969 144.278 20.0021 144.615 20.3427Z" fill="#0C1F44"/>
<path d="M19.9869 25.0629L20.0507 14.9975L25.0647 10.002L30.0787 14.9975L19.9869 25.0629Z" fill="#357EFE"/>
<path d="M5.014 19.9983L0 14.9974L10.182 4.84204L10.028 14.9974L5.014 19.9983Z" fill="#357EFE"/>
<path d="M7.41479 10.002V17.5986L10.028 14.9975L9.49157 11.5647L7.41479 10.002Z" fill="#1953E0"/>
<path d="M20.0506 14.9994L15.0367 9.99854L10.0227 14.9994L15.0367 20.0002L20.0506 14.9994Z" fill="#1FCAFF"/>
<path d="M20.0561 4.9974L15.0421 -0.00341797L10.0282 4.9974L15.0421 9.99822L20.0561 4.9974Z" fill="#1FCAFF"/>
<path d="M20.0543 24.9974L15.0403 19.9966L10.0264 24.9974L15.0403 29.9982L20.0543 24.9974Z" fill="#1FCAFF"/>
<path d="M10.028 5.00098L9.11974 5.90686C8.58061 6.4441 8.15292 7.08205 7.86112 7.78424C7.56932 8.48643 7.41913 9.2391 7.41913 9.99921C7.41913 10.7593 7.56932 11.512 7.86112 12.2142C8.15292 12.9164 8.58061 13.5543 9.11974 14.0916L10.028 14.9974L15.0367 10.0019L10.028 5.00098Z" fill="#1FCAFF"/>
<path d="M20.9589 15.8927L20.0507 14.9868L15.0367 19.9877L20.0507 24.9886L20.9589 24.0827C21.4982 23.545 21.926 22.9066 22.2179 22.204C22.5098 21.5013 22.66 20.7482 22.66 19.9877C22.66 19.2271 22.5098 18.4741 22.2179 17.7714C21.926 17.0688 21.4982 16.4304 20.9589 15.8927Z" fill="#1FCAFF"/>
</svg>
